<svg width="57" height="18" viewBox="0 0 57 18" fill="none" xmlns="http://www.w3.org/2000/svg">
<rect width="52" height="18" fill="#E67429"/>
<path d="M11.05 13V6H11.87L15.01 11.29H14.57L17.67 6H18.49L18.5 13H17.54L17.53 7.51H17.76L15 12.15H14.54L11.76 7.51H12.01V13H11.05ZM20.6008 13V6H25.5408V6.87H21.6008V13H20.6008ZM21.5008 10.17V9.31H25.1108V10.17H21.5008ZM30.244 13V6.4L30.674 6.87H28.664V6H31.234V13H30.244ZM33.9452 13V6.4L34.3752 6.87H32.3652V6H34.9352V13H33.9452ZM38.7263 13.08C38.233 13.08 37.753 13.0033 37.2863 12.85C36.8263 12.6967 36.4497 12.49 36.1563 12.23L36.6163 11.44C36.8497 11.66 37.153 11.84 37.5263 11.98C37.8997 12.12 38.2963 12.19 38.7163 12.19C39.2497 12.19 39.6597 12.0767 39.9463 11.85C40.233 11.6233 40.3763 11.32 40.3763 10.94C40.3763 10.68 40.313 10.4533 40.1863 10.26C40.0597 10.0667 39.8397 9.92 39.5263 9.82C39.2197 9.71333 38.7963 9.66 38.2563 9.66H36.6663L37.0363 6H40.9863V6.87H37.4063L37.9263 6.38L37.6363 9.27L37.1163 8.79H38.4663C39.1663 8.79 39.7297 8.88 40.1563 9.06C40.583 9.24 40.893 9.49 41.0863 9.81C41.2797 10.1233 41.3763 10.4867 41.3763 10.9C41.3763 11.3 41.2797 11.6667 41.0863 12C40.893 12.3267 40.5997 12.59 40.2063 12.79C39.8197 12.9833 39.3263 13.08 38.7263 13.08Z" fill="white"/>
<path d="M56.5 9L52 0V18L56.5 9Z" fill="#E67429"/>
</svg>
